<?xml version="1.0" encoding="UTF-8"?>
<svg xmlns="http://www.w3.org/2000/svg" xmlns:xlink="http://www.w3.org/1999/xlink" width="464px" height="480px" viewBox="0 0 464 479" version="1.1">
<g id="surface1">
<path style=" stroke:none;fill-rule:nonzero;fill:rgb(100%,17.647059%,12.54902%);fill-opacity:1;" d="M 462.914062 109.289062 C 463.085938 109.921875 463.171875 110.578125 463.175781 111.234375 L 463.175781 213.425781 C 463.175781 216.09375 461.746094 218.558594 459.425781 219.886719 L 373.523438 269.269531 L 373.523438 367.148438 C 373.523438 369.8125 372.105469 372.269531 369.792969 373.613281 L 190.480469 476.675781 C 190.066406 476.910156 189.621094 477.058594 189.171875 477.21875 C 189.003906 477.273438 188.847656 477.375 188.667969 477.421875 C 187.414062 477.753906 186.097656 477.753906 184.84375 477.421875 C 184.640625 477.367188 184.453125 477.253906 184.257812 477.179688 C 183.847656 477.03125 183.417969 476.902344 183.027344 476.675781 L 3.75 373.613281 C 1.433594 372.28125 0 369.816406 0 367.148438 L 0 60.578125 C 0 59.90625 0.09375 59.253906 0.261719 58.621094 C 0.316406 58.40625 0.449219 58.210938 0.523438 57.996094 C 0.664062 57.605469 0.792969 57.203125 1 56.839844 C 1.136719 56.597656 1.34375 56.402344 1.511719 56.179688 C 1.726562 55.882812 1.921875 55.574219 2.171875 55.3125 C 2.386719 55.101562 2.667969 54.941406 2.910156 54.753906 C 3.179688 54.53125 3.421875 54.289062 3.730469 54.113281 L 3.742188 54.113281 L 93.382812 2.578125 C 95.691406 1.253906 98.535156 1.253906 100.84375 2.578125 L 190.488281 54.113281 L 190.507812 54.113281 C 190.804688 54.300781 191.058594 54.53125 191.328125 54.746094 C 191.570312 54.933594 191.839844 55.101562 192.054688 55.304688 C 192.316406 55.574219 192.503906 55.882812 192.726562 56.179688 C 192.886719 56.402344 193.101562 56.597656 193.230469 56.839844 C 193.445312 57.214844 193.566406 57.605469 193.714844 57.996094 C 193.789062 58.210938 193.921875 58.40625 193.976562 58.628906 C 194.148438 59.265625 194.234375 59.917969 194.238281 60.578125 L 194.238281 252.058594 L 268.9375 209.113281 L 268.9375 111.226562 C 268.9375 110.574219 269.03125 109.910156 269.199219 109.289062 C 269.261719 109.0625 269.382812 108.867188 269.460938 108.652344 C 269.609375 108.261719 269.738281 107.863281 269.945312 107.5 C 270.085938 107.257812 270.289062 107.0625 270.449219 106.835938 C 270.671875 106.539062 270.859375 106.234375 271.121094 105.972656 C 271.335938 105.757812 271.605469 105.597656 271.847656 105.414062 C 272.128906 105.1875 272.371094 104.945312 272.667969 104.769531 L 272.675781 104.769531 L 362.328125 53.238281 C 364.640625 51.90625 367.480469 51.90625 369.792969 53.238281 L 459.433594 104.769531 C 459.75 104.957031 459.992188 105.1875 460.273438 105.402344 C 460.507812 105.589844 460.777344 105.757812 460.992188 105.960938 C 461.253906 106.234375 461.441406 106.539062 461.664062 106.835938 C 461.832031 107.0625 462.035156 107.257812 462.167969 107.5 C 462.382812 107.863281 462.503906 108.261719 462.652344 108.652344 C 462.738281 108.867188 462.859375 109.0625 462.914062 109.289062 Z M 448.230469 209.113281 L 448.230469 124.132812 L 416.859375 142.164062 L 373.523438 167.078125 L 373.523438 252.058594 L 448.242188 209.113281 Z M 358.589844 362.835938 L 358.589844 277.800781 L 315.960938 302.109375 L 194.230469 371.480469 L 194.230469 457.3125 Z M 14.945312 73.476562 L 14.945312 362.835938 L 179.285156 457.304688 L 179.285156 371.488281 L 93.429688 322.972656 L 93.402344 322.953125 L 93.363281 322.933594 C 93.074219 322.769531 92.832031 322.527344 92.5625 322.320312 C 92.328125 322.132812 92.058594 321.984375 91.851562 321.78125 L 91.835938 321.753906 C 91.59375 321.519531 91.425781 321.230469 91.21875 320.96875 C 91.03125 320.71875 90.808594 320.503906 90.660156 320.242188 L 90.648438 320.214844 C 90.480469 319.9375 90.378906 319.601562 90.257812 319.285156 C 90.136719 319.003906 89.976562 318.746094 89.902344 318.445312 L 89.902344 318.4375 C 89.808594 318.082031 89.792969 317.710938 89.753906 317.347656 C 89.71875 317.066406 89.640625 316.789062 89.640625 316.507812 L 89.640625 116.421875 L 46.3125 91.5 L 14.945312 73.484375 Z M 97.125 17.648438 L 22.433594 60.578125 L 97.105469 103.503906 L 171.785156 60.566406 L 97.105469 17.648438 Z M 135.964844 285.550781 L 179.292969 260.644531 L 179.292969 73.476562 L 147.925781 91.507812 L 104.585938 116.421875 L 104.585938 303.589844 Z M 366.0625 68.308594 L 291.378906 111.234375 L 366.0625 154.160156 L 440.730469 111.226562 Z M 358.589844 167.078125 L 315.25 142.164062 L 283.878906 124.132812 L 283.878906 209.113281 L 327.210938 234.015625 L 358.589844 252.058594 Z M 186.746094 358.578125 L 296.285156 296.140625 L 351.042969 264.9375 L 276.417969 222.039062 L 190.496094 271.429688 L 112.1875 316.445312 Z M 186.746094 358.578125 "/>
</g>
</svg>
